<svg xmlns="http://www.w3.org/2000/svg" width="1600" height="900" viewBox="0 0 1600 900">
<rect width="1600" height="900" fill="#f8fafc"/>
<text x="80" y="90" fill="#0f172a" font-size="40" font-family="Arial, Helvetica, sans-serif" font-weight="700">Sample Workflow Layout</text>
<rect x="100" y="220" width="220" height="100" rx="18" fill="#dbeafe" stroke="#60a5fa"/>
<text x="145" y="278" fill="#1e3a8a" font-size="28" font-family="Arial, Helvetica, sans-serif">Slack Trigger</text>
<rect x="420" y="220" width="250" height="100" rx="18" fill="#dcfce7" stroke="#4ade80"/>
<text x="455" y="278" fill="#166534" font-size="28" font-family="Arial, Helvetica, sans-serif">Normalize Message</text>
<rect x="790" y="220" width="240" height="100" rx="18" fill="#fef3c7" stroke="#f59e0b"/>
<text x="835" y="278" fill="#92400e" font-size="28" font-family="Arial, Helvetica, sans-serif">Classify Urgency</text>
<rect x="1170" y="120" width="220" height="100" rx="18" fill="#fee2e2" stroke="#f87171"/>
<text x="1238" y="178" fill="#991b1b" font-size="28" font-family="Arial, Helvetica, sans-serif">Urgent Path</text>
<rect x="1170" y="320" width="220" height="100" rx="18" fill="#e0e7ff" stroke="#818cf8"/>
<text x="1230" y="378" fill="#3730a3" font-size="28" font-family="Arial, Helvetica, sans-serif">Normal Path</text>
<rect x="790" y="520" width="240" height="100" rx="18" fill="#ede9fe" stroke="#8b5cf6"/>
<text x="835" y="578" fill="#5b21b6" font-size="28" font-family="Arial, Helvetica, sans-serif">Create Notion Item</text>
<rect x="1170" y="520" width="220" height="100" rx="18" fill="#cffafe" stroke="#22d3ee"/>
<text x="1225" y="578" fill="#155e75" font-size="28" font-family="Arial, Helvetica, sans-serif">Report Status</text>
<line x1="320" y1="270" x2="420" y2="270" stroke="#64748b" stroke-width="6"/>
<line x1="670" y1="270" x2="790" y2="270" stroke="#64748b" stroke-width="6"/>
<line x1="1030" y1="270" x2="1170" y2="170" stroke="#64748b" stroke-width="6"/>
<line x1="1030" y1="270" x2="1170" y2="370" stroke="#64748b" stroke-width="6"/>
<line x1="1280" y1="420" x2="1280" y2="520" stroke="#64748b" stroke-width="6"/>
<line x1="1030" y1="570" x2="1170" y2="570" stroke="#64748b" stroke-width="6"/>
</svg>